<?xml version="1.0" encoding="utf-8"?>
<svg xmlns="http://www.w3.org/2000/svg" xmlns:xlink="http://www.w3.org/1999/xlink" x="0px" y="0px"
	 viewBox="0 0 92 21" style="enable-background:new 0 0 92 21;" xml:space="preserve">
<path fill="#ff6600" d="M11.36,11.35H5.61c-0.25,0-0.38,0.11-0.38,0.33c0,0.52,0.29,1.02,0.86,1.48s1.19,0.7,1.85,0.7
	c0.39,0,0.83-0.08,1.3-0.22c0.48-0.15,0.87-0.33,1.18-0.55c0.28-0.19,0.5-0.29,0.66-0.29c0.21,0,0.42,0.13,0.62,0.39
	c0.19,0.22,0.3,0.51,0.31,0.8c0,0.58-0.37,1.14-1.1,1.68c-1.3,0.96-2.79,1.44-4.49,1.44c-1.71,0-3.15-0.49-4.31-1.48
	c-0.57-0.49-1.04-1.09-1.4-1.75C0.25,12.98,0,11.99,0,10.99c0-1.36,0.42-2.57,1.25-3.65C1.97,6.4,2.88,5.7,3.99,5.24
	C4.82,4.89,5.72,4.72,6.7,4.72c1.55,0,2.87,0.44,3.95,1.31c0.55,0.44,0.99,0.95,1.32,1.55c0.38,0.68,0.58,1.34,0.58,1.99
	c0.02,0.45-0.1,0.9-0.33,1.29C12,11.19,11.71,11.35,11.36,11.35L11.36,11.35z M5.93,9.09h1.24c0.52,0,0.78-0.24,0.78-0.71
	c0.02-0.39-0.12-0.77-0.38-1.07C7.31,7.04,6.95,6.89,6.57,6.9C6.15,6.88,5.74,7.08,5.5,7.43C5.27,7.72,5.14,8.07,5.13,8.44
	c0,0.24,0.06,0.41,0.18,0.51C5.42,9.04,5.63,9.09,5.93,9.09z M20.08,4.71c1.42,0,2.62,0.36,3.61,1.07c0.52,0.38,0.89,0.82,1.1,1.3
	C25,7.56,25.1,8.23,25.1,9.09l-0.02,1.8c0,1.25,0.09,2.06,0.27,2.43c0.09,0.18,0.18,0.29,0.26,0.34c0.16,0.07,0.34,0.12,0.51,0.13
	c0.26,0.04,0.39,0.21,0.39,0.51c-0.02,0.44-0.19,0.87-0.47,1.21c-0.33,0.43-0.74,0.79-1.22,1.05c-0.58,0.35-1.24,0.53-1.92,0.53
	c-0.78,0.03-1.53-0.29-2.03-0.87c-0.17-0.21-0.33-0.31-0.48-0.31c-0.16,0-0.38,0.1-0.65,0.3c-0.8,0.58-1.78,0.89-2.78,0.88
	c-1.07,0-1.94-0.23-2.59-0.68c-0.43-0.3-0.79-0.7-1.03-1.17c-0.25-0.46-0.38-0.98-0.38-1.51c0-0.84,0.34-1.58,1.03-2.23
	c1.07-1.02,2.67-1.53,4.8-1.54c0.47,0,0.77-0.04,0.89-0.14c0.12-0.09,0.18-0.31,0.18-0.65c0-0.86-0.09-1.47-0.27-1.86
	s-0.47-0.58-0.88-0.58c-0.24,0-0.47,0.07-0.66,0.22c-0.19,0.14-0.43,0.41-0.72,0.8c-0.73,1.02-1.48,1.54-2.28,1.54
	c-0.36,0.01-0.71-0.11-0.98-0.35c-0.25-0.24-0.39-0.57-0.38-0.92c0-0.39,0.16-0.77,0.47-1.16c0.31-0.39,0.74-0.73,1.28-1.02
	C16.88,5.11,18.47,4.71,20.08,4.71L20.08,4.71z M19.26,11.72c-0.36,0-0.7,0.16-0.94,0.44c-0.26,0.28-0.41,0.66-0.4,1.04
	c0,0.39,0.09,0.7,0.28,0.94c0.18,0.23,0.45,0.37,0.75,0.36c0.65,0,0.98-0.55,0.98-1.63c0-0.44-0.05-0.74-0.14-0.89
	C19.7,11.8,19.52,11.72,19.26,11.72z M32.03,4.72c0.41,0,1.07,0.09,2,0.27c0.15,0.03,0.31,0.05,0.46,0.05
	C34.77,5,35.04,4.93,35.3,4.82c0.15-0.07,0.31-0.1,0.48-0.11c0.38,0,0.76,0.24,1.14,0.71c0.31,0.38,0.56,0.8,0.76,1.25
	c0.18,0.37,0.28,0.77,0.29,1.17c0.01,0.3-0.12,0.6-0.34,0.8c-0.23,0.22-0.54,0.33-0.86,0.32c-0.27,0-0.54-0.07-0.77-0.2
	c-0.39-0.27-0.75-0.58-1.09-0.91c-0.52-0.5-0.95-0.75-1.3-0.75c-0.22,0-0.44,0.09-0.59,0.25c-0.16,0.15-0.25,0.37-0.25,0.59
	c0,0.39,0.38,0.77,1.15,1.11c1.38,0.61,2.44,1.28,3.17,2.01c0.62,0.61,0.93,1.36,0.93,2.25c0,1.12-0.5,2.06-1.5,2.81
	c-0.91,0.67-2.02,1.02-3.15,0.98c-0.32,0-0.9-0.05-1.74-0.16c-0.44-0.06-0.89-0.1-1.33-0.13c-0.12,0-0.25,0.01-0.37,0.04
	c-0.17,0.03-0.34,0.04-0.51,0.05c-0.33,0.02-0.65-0.09-0.9-0.29c-0.4-0.4-0.72-0.88-0.93-1.41c-0.26-0.52-0.4-1.08-0.43-1.65
	c0-0.74,0.29-1.11,0.88-1.11c0.23,0,0.44,0.08,0.63,0.22c0.19,0.15,0.59,0.55,1.21,1.19c0.33,0.36,0.61,0.6,0.83,0.73
	c0.21,0.13,0.46,0.2,0.71,0.2c0.27,0,0.49-0.07,0.65-0.21c0.16-0.14,0.25-0.35,0.25-0.56c0-0.36-0.31-0.69-0.94-0.99
	c-1.31-0.64-2.26-1.3-2.84-1.98c-0.57-0.65-0.88-1.49-0.87-2.35c0-0.96,0.3-1.79,0.89-2.48C29.4,5.22,30.56,4.72,32.03,4.72
	L32.03,4.72z M51.17,10.67l-1.62,4.39c-0.32,0.92-0.73,1.82-1.21,2.67c-0.37,0.65-0.83,1.24-1.38,1.76c-1.06,1-2.34,1.5-3.83,1.5
	c-1.21,0-2.19-0.31-2.94-0.94c-0.56-0.45-0.89-1.14-0.87-1.85c0-0.62,0.2-1.15,0.61-1.57c0.38-0.41,0.92-0.65,1.49-0.64
	c0.59,0,1.06,0.19,1.42,0.58c0.14,0.14,0.26,0.3,0.34,0.47c0.06,0.14,0.14,0.44,0.26,0.91c0.09,0.36,0.29,0.53,0.61,0.53
	c0.25,0,0.49-0.12,0.64-0.33c0.18-0.23,0.27-0.52,0.26-0.81c0-0.38-0.21-1.01-0.64-1.9l-2.95-6.21c-0.18-0.43-0.42-0.84-0.7-1.21
	c-0.31-0.25-0.65-0.45-1.03-0.59c-0.18-0.08-0.33-0.21-0.42-0.38c-0.11-0.16-0.17-0.35-0.18-0.55c0-0.72,0.72-1.21,2.17-1.46
	c0.96-0.17,2.06-0.25,3.29-0.25c0.87,0,1.54,0.09,2.04,0.27c0.67,0.23,1,0.63,1,1.2c-0.02,0.26-0.12,0.51-0.28,0.71
	c-0.16,0.2-0.25,0.44-0.27,0.69c0,0.19,0.04,0.39,0.13,0.61c0.08,0.21,0.27,0.56,0.54,1.07c0.31,0.56,0.58,0.85,0.82,0.85
	c0.25,0,0.51-0.25,0.78-0.74c0.25-0.44,0.39-0.93,0.4-1.43c0.01-0.33-0.1-0.65-0.31-0.91c-0.31-0.36-0.46-0.68-0.46-0.93
	c0-0.41,0.28-0.74,0.83-0.99c0.56-0.25,1.3-0.37,2.23-0.37c1.73,0,2.59,0.41,2.59,1.24c0.01,0.27-0.08,0.53-0.26,0.72
	c-0.28,0.24-0.61,0.42-0.96,0.52c-0.38,0.14-0.71,0.39-0.93,0.73C52.05,8.54,51.64,9.43,51.17,10.67L51.17,10.67z M63.4,0
	c0.91,0,1.84,0.08,2.79,0.24c0.77,0.13,1.33,0.31,1.66,0.53s0.5,0.54,0.5,0.93c0.01,0.21-0.05,0.42-0.18,0.59
	c-0.23,0.22-0.5,0.39-0.8,0.52c-0.47,0.24-0.74,0.53-0.81,0.85s-0.13,1.6-0.19,3.81c-0.02,2.14-0.05,3.42-0.07,3.85
	c-0.02,0.42-0.07,0.84-0.15,1.25c-0.24,1.18-0.71,2.1-1.43,2.77c-0.59,0.55-1.34,0.98-2.27,1.3c-0.94,0.32-1.92,0.48-2.91,0.47
	c-0.92,0-1.84-0.12-2.73-0.35c-0.83-0.2-1.63-0.53-2.37-0.97c-0.55-0.34-1.01-0.81-1.32-1.37c-0.32-0.56-0.49-1.2-0.49-1.85
	c0-0.81,0.26-1.47,0.77-2.01c0.5-0.52,1.21-0.81,1.94-0.79c0.76,0,1.4,0.22,1.94,0.67c0.51,0.41,0.8,1.02,0.8,1.67
	c0,0.17-0.05,0.45-0.15,0.85c-0.02,0.09-0.02,0.18-0.02,0.27c-0.01,0.24,0.09,0.47,0.28,0.63c0.21,0.17,0.48,0.26,0.75,0.24
	c0.54,0,1.04-0.27,1.32-0.73c0.33-0.49,0.5-1.12,0.5-1.91l-0.01-1.1l-0.02-2.96c-0.03-1.06-0.09-2.12-0.16-3.18
	c-0.02-0.28-0.12-0.55-0.28-0.78c-0.08-0.13-0.2-0.23-0.33-0.31c-0.25-0.1-0.5-0.17-0.77-0.23c-0.2-0.05-0.38-0.17-0.5-0.34
	c-0.13-0.17-0.21-0.38-0.21-0.59c0-0.44,0.17-0.78,0.52-1.05c0.35-0.26,0.91-0.47,1.69-0.64C61.58,0.09,62.49,0,63.4,0L63.4,0z
	 M79.32,11.35h-5.75c-0.25,0-0.38,0.11-0.38,0.33c0,0.52,0.29,1.02,0.86,1.48s1.19,0.7,1.85,0.7c0.39,0,0.83-0.08,1.3-0.22
	c0.48-0.15,0.87-0.33,1.18-0.55c0.28-0.19,0.5-0.29,0.66-0.29c0.21,0,0.42,0.13,0.62,0.39c0.19,0.22,0.3,0.51,0.31,0.8
	c0,0.58-0.37,1.14-1.1,1.68c-1.3,0.96-2.79,1.44-4.49,1.44c-1.71,0-3.15-0.49-4.31-1.48c-1.35-1.17-2.12-2.86-2.12-4.64
	c0-1.36,0.42-2.57,1.25-3.65c0.72-0.94,1.63-1.63,2.74-2.09c0.83-0.35,1.73-0.52,2.71-0.52c1.55,0,2.87,0.44,3.96,1.31
	c0.55,0.44,0.99,0.95,1.32,1.55c0.38,0.68,0.58,1.34,0.58,1.99c0.02,0.45-0.1,0.9-0.33,1.29C79.96,11.19,79.68,11.35,79.32,11.35
	L79.32,11.35z M73.89,9.09h1.24c0.52,0,0.78-0.24,0.78-0.71c0.02-0.39-0.12-0.77-0.38-1.07c-0.25-0.27-0.62-0.43-0.99-0.41
	c-0.43-0.01-0.83,0.19-1.08,0.53c-0.23,0.29-0.36,0.64-0.37,1.01c0,0.24,0.06,0.41,0.18,0.51C73.39,9.04,73.6,9.09,73.89,9.09
	L73.89,9.09z M88.3,7.89v4.09c0,0.49,0.12,0.88,0.36,1.19c0.21,0.29,0.56,0.46,0.92,0.46c0.32,0,0.74-0.14,1.26-0.44
	c0.11-0.07,0.24-0.11,0.37-0.11c0.2,0,0.38,0.12,0.54,0.35C91.92,13.66,92,13.92,92,14.2c0,0.5-0.28,0.98-0.83,1.44
	c-1.16,0.98-2.57,1.46-4.21,1.46c-1.31,0-2.35-0.36-3.15-1.09c-0.79-0.73-1.19-1.69-1.19-2.89V7.53c0-0.19-0.02-0.3-0.07-0.35
	c-0.05-0.04-0.16-0.07-0.35-0.07h-1.26c-0.24,0-0.39-0.04-0.45-0.11c-0.06-0.08-0.1-0.26-0.1-0.54V5.93
	c0.01-0.24,0.1-0.42,0.28-0.53l5.61-3.49c0.16-0.08,0.34-0.12,0.51-0.11h0.99c0.2,0,0.34,0.04,0.41,0.14
	c0.07,0.09,0.1,0.28,0.1,0.55v1.63c0,0.24,0.04,0.4,0.12,0.47c0.08,0.07,0.24,0.11,0.49,0.11h2.27c0.3,0,0.5,0.05,0.59,0.16
	c0.09,0.11,0.13,0.34,0.13,0.7v0.71c0,0.39-0.06,0.66-0.17,0.8C91.61,7.23,91.4,7.3,91.1,7.3h-2.22c-0.23,0-0.38,0.04-0.46,0.12
	C88.34,7.51,88.3,7.67,88.3,7.89L88.3,7.89z"/>
</svg>
